<svg width="159" height="20" viewBox="0 0 159 20" fill="none" xmlns="http://www.w3.org/2000/svg">
<path d="M77.488 15.3211V10.0306C77.488 8.99085 77.2441 8.07342 76.7564 7.27831C76.2687 6.45263 75.598 5.81042 74.7445 5.35171C73.891 4.89299 72.9155 4.64835 71.8181 4.64835C70.7512 4.64835 69.7757 4.89299 68.9222 5.35171C68.0687 5.81042 67.398 6.45263 66.9103 7.27831C66.4226 8.104 66.1787 9.05201 66.1787 10.0918C66.1787 11.1315 66.4226 12.0795 66.9103 12.9052C67.398 13.7309 68.0687 14.3731 68.9222 14.8318C69.7757 15.2905 70.7512 15.5352 71.8181 15.5352C72.9155 15.5352 74.5311 14.9847 75.1103 14.0367V13.8838V15.3211H77.488ZM74.9579 10.0612C74.9579 11.0704 74.6531 11.8655 74.0739 12.4771C73.4947 13.0887 72.7326 13.3945 71.8181 13.3945C70.9036 13.3945 70.1415 13.0887 69.5624 12.4771C68.9832 11.8655 68.6783 11.0704 68.6783 10.0612C68.6783 9.05201 68.9832 8.25691 69.5624 7.64529C70.1415 7.03367 70.9036 6.72786 71.8181 6.72786C72.7326 6.72786 73.4947 7.03367 74.0739 7.64529C74.6835 8.25691 74.9579 9.0826 74.9579 10.0612Z" fill="white"/>
<path d="M22.68 14.8318C21.8265 14.3731 21.1559 13.7309 20.6681 12.9052C20.1804 12.0795 19.9365 11.1315 19.9365 10.0918C19.9365 9.05202 20.1804 8.104 20.6681 7.27832C21.1559 6.45263 21.8265 5.81043 22.68 5.35171C23.5335 4.89299 24.509 4.64835 25.5759 4.64835C26.6733 4.64835 27.6183 4.89299 28.5023 5.35171C29.3558 5.81043 30.0265 6.45263 30.5142 7.27832C31.0019 8.104 31.2458 9.02143 31.2458 10.0918C31.2458 11.1315 31.0019 12.0795 30.5142 12.9052C30.0265 13.7309 29.3558 14.3731 28.5023 14.8624C27.6488 15.3211 26.6733 15.5658 25.5759 15.5658C24.509 15.5352 23.5335 15.2905 22.68 14.8318ZM27.8317 12.4771C28.4414 11.8655 28.7157 11.0704 28.7157 10.0612C28.7157 9.05202 28.4109 8.25691 27.8317 7.64529C27.222 7.03367 26.4904 6.72786 25.5759 6.72786C24.6614 6.72786 23.8993 7.03367 23.3202 7.64529C22.741 8.25691 22.4361 9.05202 22.4361 10.0612C22.4361 11.0704 22.741 11.8655 23.3202 12.4771C23.8993 13.0887 24.6614 13.3945 25.5759 13.3945C26.4904 13.3945 27.2525 13.0887 27.8317 12.4771Z" fill="white"/>
<path d="M55.0226 12.2324L56.3333 13.7615C55.8761 14.3425 55.2664 14.7707 54.5348 15.0459C53.8032 15.3517 52.9802 15.474 52.0657 15.474C50.9073 15.474 49.8709 15.26 48.9869 14.7707C48.1029 14.312 47.4017 13.6698 46.9445 12.8441C46.4568 12.0184 46.2129 11.0704 46.2129 10.0306C46.2129 8.99086 46.4568 8.07343 46.914 7.24774C47.3713 6.42205 48.0419 5.77985 48.8649 5.29055C49.688 4.83184 50.633 4.58719 51.6694 4.58719C52.6753 4.58719 53.5594 4.80126 54.3824 5.22939C55.2055 5.65752 55.8456 6.26915 56.3333 7.06425C56.8211 7.85936 57.0344 8.80737 57.0649 9.87771L48.9564 11.4679C49.2003 12.0795 49.627 12.5383 50.1757 12.8746C50.7244 13.211 51.395 13.3639 52.1876 13.3639C53.285 13.3945 54.2605 12.997 55.0226 12.2324ZM49.4746 7.49239C48.9259 8.10401 48.6211 8.89912 48.6211 9.90829V9.93887L54.5958 8.77679C54.4129 8.13459 54.0776 7.61471 53.5594 7.21716C53.0411 6.8196 52.401 6.63612 51.6694 6.63612C50.7549 6.60554 50.0233 6.91135 49.4746 7.49239Z" fill="white"/>
<path d="M65.3843 14.7706C65.0795 15.0153 64.7442 15.1988 64.3174 15.3211C63.8906 15.4434 63.4639 15.5046 63.0066 15.5046C61.8483 15.5046 60.9338 15.1988 60.2936 14.5871C59.6535 13.9755 59.3486 13.0887 59.3486 11.9266V2.38531H61.8178V4.80122H64.6527V6.78899H61.8178V11.8349C61.8178 12.3547 61.9397 12.7523 62.2141 13.0275C62.4579 13.3027 62.8237 13.4251 63.281 13.4251C63.8297 13.4251 64.2869 13.2722 64.6832 12.9969L65.3843 14.7706Z" fill="white"/>
<path d="M43.8667 9.63303C43.8667 6.85015 41.6109 4.61774 38.8674 4.61774C36.1239 4.61774 33.8682 6.88073 33.8682 9.63303V15.3517H36.3373V9.63303C36.3373 8.2263 37.4652 7.0948 38.8674 7.0948C40.2697 7.0948 41.3975 8.2263 41.3975 9.63303V15.3517H43.8667V9.63303Z" fill="white"/>
<path d="M17.5584 9.63303C17.5584 6.85015 15.3026 4.61774 12.5591 4.61774C11.0654 4.61774 9.69367 5.29052 8.77918 6.33028C7.86468 5.29052 6.52342 4.61774 4.99925 4.61774C2.22528 4.61774 0 6.88073 0 9.63303V15.3517H2.46914V9.63303C2.46914 8.2263 3.59702 7.0948 4.99925 7.0948C6.40148 7.0948 7.52936 8.2263 7.52936 9.63303V15.3517H9.99851V9.63303C9.99851 8.2263 11.1264 7.0948 12.5286 7.0948C13.9308 7.0948 15.0587 8.2263 15.0587 9.63303V15.3517H17.5279V9.63303H17.5584Z" fill="white"/>
<path d="M111.813 4.77069V10.5811C111.813 12.1407 111.417 13.3334 110.655 14.1591C109.893 14.9848 108.765 15.4129 107.332 15.4129C105.625 15.4129 104.436 14.7707 103.766 13.5169C103.43 14.1591 102.943 14.6178 102.363 14.9236C101.784 15.2294 101.053 15.3823 100.169 15.3823C98.7053 15.3823 97.5775 14.9542 96.8154 14.1285C96.0533 13.3028 95.6875 12.1101 95.6875 10.5505V4.74011H97.5775V10.3976C97.5775 11.5291 97.7908 12.3548 98.1871 12.9052C98.5834 13.4557 99.254 13.7004 100.138 13.7004C101.022 13.7004 101.693 13.4251 102.119 12.8747C102.546 12.3242 102.76 11.4985 102.76 10.3976V4.77069H104.65V10.4282C104.65 11.5291 104.863 12.3548 105.29 12.9052C105.716 13.4557 106.387 13.7309 107.271 13.7309C108.155 13.7309 108.795 13.4557 109.222 12.9358C109.618 12.3854 109.832 11.5597 109.832 10.4282V4.77069H111.813Z" fill="white"/>
<path d="M129.674 14.5872C129.125 14.0367 128.851 13.2416 128.851 12.2019V0.581085H130.741V12.0796C130.741 12.6606 130.862 13.0887 131.137 13.3945C131.411 13.7004 131.807 13.8533 132.356 13.8533C132.691 13.8533 132.996 13.7921 133.301 13.6392L133.393 15.1988C132.966 15.3517 132.509 15.4435 132.021 15.4435C131.015 15.4435 130.222 15.1682 129.674 14.5872Z" fill="white"/>
<path d="M136.015 14.5872C135.467 14.0367 135.192 13.2416 135.192 12.2019V0.581085H137.082V12.0796C137.082 12.6606 137.204 13.0887 137.479 13.3945C137.753 13.7004 138.149 13.8533 138.698 13.8533C139.033 13.8533 139.338 13.7921 139.643 13.6392L139.734 15.1988C139.308 15.3517 138.85 15.4435 138.363 15.4435C137.357 15.4435 136.595 15.1682 136.015 14.5872Z" fill="white"/>
<path d="M149.124 12.5077L150.16 13.7309C149.703 14.2814 149.124 14.7095 148.392 15.0153C147.691 15.3211 146.898 15.4434 146.014 15.4434C144.917 15.4434 143.911 15.2294 143.058 14.7707C142.204 14.312 141.533 13.6697 141.076 12.8441C140.619 12.0184 140.375 11.1009 140.375 10.0612C140.375 9.05201 140.588 8.13458 141.046 7.30889C141.503 6.4832 142.143 5.841 142.936 5.38229C143.728 4.92357 144.643 4.7095 145.649 4.7095C146.594 4.7095 147.478 4.92357 148.24 5.3517C149.032 5.77984 149.642 6.39146 150.099 7.15599C150.556 7.95109 150.8 8.83794 150.8 9.84712L142.478 11.4679C142.753 12.2019 143.179 12.7523 143.82 13.1499C144.46 13.5474 145.191 13.7615 146.075 13.7615C147.356 13.7615 148.362 13.3334 149.124 12.5077ZM143.881 6.75843C143.362 7.06424 142.966 7.49238 142.661 8.04284C142.356 8.59329 142.234 9.2355 142.234 9.96944V10.1835L148.941 8.89911C148.758 8.13458 148.392 7.49238 147.782 7.03366C147.173 6.54437 146.472 6.3303 145.649 6.3303C145.008 6.29972 144.399 6.45262 143.881 6.75843Z" fill="white"/>
<path d="M159 14.7096C158.726 14.9543 158.39 15.1378 157.964 15.2601C157.567 15.3824 157.14 15.4436 156.683 15.4436C155.616 15.4436 154.793 15.1683 154.214 14.5873C153.635 14.0063 153.33 13.2111 153.33 12.1408V2.4772H155.22V4.77078H158.238V6.33042H155.281V12.0491C155.281 12.6301 155.433 13.0582 155.708 13.3641C155.982 13.6699 156.409 13.8228 156.927 13.8228C157.506 13.8228 157.994 13.6699 158.421 13.3335L159 14.7096Z" fill="white"/>
<path d="M124.525 7.27831C124.068 6.45262 123.397 5.841 122.574 5.38229C121.751 4.92357 120.806 4.7095 119.77 4.7095C118.734 4.7095 117.789 4.92357 116.966 5.38229C116.142 5.841 115.472 6.4832 115.015 7.27831C114.557 8.104 114.313 9.02143 114.313 10.0612C114.313 11.1009 114.557 12.0184 115.015 12.8441C115.472 13.6697 116.142 14.3119 116.966 14.7707C117.789 15.2294 118.734 15.474 119.77 15.474C121.02 15.474 121.69 15.1988 122.513 14.6789C123.001 14.3731 123.276 13.9756 123.397 13.7921V15.3517H125.226V10.0612C125.226 9.02143 124.983 8.104 124.525 7.27831ZM123.306 10.0612C123.306 10.7951 123.154 11.4373 122.849 11.9878C122.544 12.5382 122.117 12.997 121.599 13.3028C121.05 13.6086 120.471 13.7615 119.8 13.7615C119.13 13.7615 118.52 13.6086 118.002 13.3028C117.453 12.997 117.057 12.5688 116.722 11.9878C116.417 11.4373 116.264 10.7645 116.264 10.0612C116.264 9.32724 116.417 8.68504 116.722 8.13458C117.026 7.58412 117.453 7.1254 118.002 6.81959C118.551 6.51378 119.13 6.36088 119.8 6.36088C120.471 6.36088 121.081 6.51378 121.599 6.81959C122.148 7.1254 122.544 7.55354 122.849 8.13458C123.154 8.68504 123.306 9.32724 123.306 10.0612Z" fill="white"/>
<path d="M88.036 0H85.1401V20H88.036V0Z" fill="#FFC12D"/>
</svg>
